<svg 
 xmlns="http://www.w3.org/2000/svg"
 xmlns:xlink="http://www.w3.org/1999/xlink">
<path fill-rule="evenodd"  fill="rgb(29, 196, 244)"
 d="M41.964,14.254 C41.531,15.027 37.722,21.484 28.391,24.802 C28.391,24.802 33.939,22.033 36.926,18.958 C39.433,16.378 41.100,13.459 39.305,10.975 C36.054,6.477 29.511,6.842 29.511,6.842 C29.511,6.842 28.298,6.877 28.811,6.272 L30.770,2.708 C30.770,2.708 30.926,2.180 32.029,2.281 C33.132,2.381 39.092,3.013 41.684,6.557 C44.276,10.100 42.289,13.672 41.964,14.254 ZM32.309,10.263 C31.888,11.087 22.235,27.795 22.235,27.795 C22.235,27.795 21.938,28.254 21.675,27.795 C21.412,27.336 6.983,1.996 6.983,1.996 C6.983,1.996 6.624,1.536 7.123,1.568 L12.020,1.568 C12.020,1.568 12.532,1.511 12.720,1.853 C12.908,2.195 21.675,17.960 21.675,17.960 C21.675,17.960 21.949,18.488 22.235,17.960 C22.521,17.432 26.852,9.835 26.852,9.835 C26.852,9.835 27.186,8.873 28.531,8.837 C29.876,8.802 31.069,8.995 31.609,9.123 C32.150,9.250 32.730,9.439 32.309,10.263 ZM21.953,5.406 C20.478,5.406 19.281,4.196 19.281,2.703 C19.281,1.210 20.478,0.000 21.953,0.000 C23.429,0.000 24.625,1.210 24.625,2.703 C24.625,4.196 23.429,5.406 21.953,5.406 ZM15.378,4.846 C14.437,5.249 14.959,4.419 14.959,4.419 C14.959,4.419 17.146,3.426 17.757,3.278 C18.369,3.131 17.897,3.706 17.897,3.706 C17.897,3.706 16.320,4.444 15.378,4.846 ZM8.802,8.125 C8.123,8.565 5.804,10.435 4.464,12.116 C3.124,13.797 1.364,17.286 4.744,19.528 C8.124,21.770 14.327,21.939 14.959,21.951 C15.590,21.963 15.378,22.379 15.378,22.379 L13.140,25.942 C12.806,26.254 12.020,26.227 12.020,26.227 C6.880,26.112 2.524,24.596 0.686,21.523 C-1.152,18.451 1.054,14.380 3.065,12.258 C5.076,10.137 8.007,8.068 8.522,7.697 C9.037,7.327 9.481,7.684 8.802,8.125 Z"/>
</svg>